# xmcd
#
# Track frame offsets:
#  183
#  13273
#  28333
#  44028
#  58653
#  75250
#  91485
#  108040
#  151510
#  166408
#  182058
#  195620
#  212978
#  231865
#  244783
#  257605
#  269215
#  285563
#  299640
#
# Disc length: 4226 seconds
#
# Revision: 0
# Processed by: cddbd v1.5.1PL2 Copyright (c) Steve Scherf et al.
# Submitted via: Collectorz.com_Music_Collector 6.11
#
DISCID=15108013
DTITLE=Various Artist - Blues At Newport
DYEAR=1989
DGENRE=Blues
TTITLE0=John Hurt - Candy Man
TTITLE1=John Hurt - Coffee Blues
TTITLE2=John Hurt - Stagolee
TTITLE3=Traditional - Long Gone
TTITLE4=Big Bill Broonzy - Key To The Highway
TTITLE5=Traditional - Samson And Delilah
TTITLE6=I Won't Be Back No More
TTITLE7=The Prodigal Song
TTITLE8=(I Wish I Was In) Heaven Sitting Down
TTITLE9=Skip James - Devil Got My Woman
TTITLE10=Clean Up At Home
TTITLE11=Traditional - On My Way From Texas
TTITLE12=Bulldog Blues
TTITLE13=I Double Double Do Love You
TTITLE14=Hollis - San Francisco Bay Blues
TTITLE15=Me And The Devil
TTITLE16=John Lee Hooker - Sometimes You Make Me Feel So Bad
TTITLE17=Hobo Blues
TTITLE18=That Will Never Happen No More
EXTD=
EXTT0=
EXTT1=
EXTT2=
EXTT3=
EXTT4=
EXTT5=
EXTT6=
EXTT7=
EXTT8=
EXTT9=
EXTT10=
EXTT11=
EXTT12=
EXTT13=
EXTT14=
EXTT15=
EXTT16=
EXTT17=
EXTT18=
PLAYORDER=
